<svg xmlns="http://www.w3.org/2000/svg" width="1200" height="500" viewBox="0 0 1200 500" role="img" aria-labelledby="t d">
  <title id="t">Site map: nine pages of the Dongil International website</title>
  <desc id="d">The repository builds a nine-page static site: Home, Products, Applications, Projects, About, News and Media, Resources, Careers, and Contact. Each is a hand-authored HTML page sharing one stylesheet and one bilingual translation table.</desc>
  <rect width="1200" height="500" rx="26" fill="#0a1628"/>
  <rect x="1" y="1" width="1198" height="498" rx="25" fill="none" stroke="#22334f" stroke-width="1"/>
  <text x="66" y="52" font-family="ui-monospace, SFMono-Regular, Menlo, monospace" font-size="13" letter-spacing="3" fill="#7c96c4">SITE MAP · SHARED CSS + TRANSLATION TABLE</text>
  <text x="66" y="84" font-family="-apple-system, BlinkMacSystemFont, 'Segoe UI', sans-serif" font-size="30" font-weight="800" fill="#f2f6fc">One codebase, nine pages</text>
  <g transform="translate(66 104)">
    <rect width="340" height="108" rx="14" fill="#241021" stroke="#A4123F" stroke-width="2"/>
    <line x1="0" y1="34" x2="340" y2="34" stroke="#A4123F" stroke-width="1" opacity="0.5"/>
    <circle cx="20" cy="17" r="4.5" fill="#A4123F"/>
    <circle cx="36" cy="17" r="4.5" fill="#2c456e"/>
    <circle cx="52" cy="17" r="4.5" fill="#2c456e"/>
    <text x="72" y="22" font-family="ui-monospace, SFMono-Regular, Menlo, monospace" font-size="13" fill="#8ea3c0">index.html</text>
    <text x="20" y="76" font-family="-apple-system, BlinkMacSystemFont, 'Segoe UI', sans-serif" font-size="23" font-weight="700" fill="#f2f6fc">Home</text>
    <text x="20" y="98" font-family="-apple-system, BlinkMacSystemFont, 'Segoe UI', sans-serif" font-size="12.5" fill="#e0728f">entry point</text>
  </g>
  <g transform="translate(430 104)">
    <rect width="340" height="108" rx="14" fill="#14243f" stroke="#33507e" stroke-width="1.4"/>
    <line x1="0" y1="34" x2="340" y2="34" stroke="#33507e" stroke-width="1" opacity="0.5"/>
    <circle cx="20" cy="17" r="4.5" fill="#33507e"/>
    <circle cx="36" cy="17" r="4.5" fill="#2c456e"/>
    <circle cx="52" cy="17" r="4.5" fill="#2c456e"/>
    <text x="72" y="22" font-family="ui-monospace, SFMono-Regular, Menlo, monospace" font-size="13" fill="#8ea3c0">products.html</text>
    <text x="20" y="76" font-family="-apple-system, BlinkMacSystemFont, 'Segoe UI', sans-serif" font-size="23" font-weight="700" fill="#f2f6fc">Products</text>
  </g>
  <g transform="translate(794 104)">
    <rect width="340" height="108" rx="14" fill="#14243f" stroke="#33507e" stroke-width="1.4"/>
    <line x1="0" y1="34" x2="340" y2="34" stroke="#33507e" stroke-width="1" opacity="0.5"/>
    <circle cx="20" cy="17" r="4.5" fill="#33507e"/>
    <circle cx="36" cy="17" r="4.5" fill="#2c456e"/>
    <circle cx="52" cy="17" r="4.5" fill="#2c456e"/>
    <text x="72" y="22" font-family="ui-monospace, SFMono-Regular, Menlo, monospace" font-size="13" fill="#8ea3c0">applications.html</text>
    <text x="20" y="76" font-family="-apple-system, BlinkMacSystemFont, 'Segoe UI', sans-serif" font-size="23" font-weight="700" fill="#f2f6fc">Applications</text>
  </g>
  <g transform="translate(66 234)">
    <rect width="340" height="108" rx="14" fill="#14243f" stroke="#33507e" stroke-width="1.4"/>
    <line x1="0" y1="34" x2="340" y2="34" stroke="#33507e" stroke-width="1" opacity="0.5"/>
    <circle cx="20" cy="17" r="4.5" fill="#33507e"/>
    <circle cx="36" cy="17" r="4.5" fill="#2c456e"/>
    <circle cx="52" cy="17" r="4.5" fill="#2c456e"/>
    <text x="72" y="22" font-family="ui-monospace, SFMono-Regular, Menlo, monospace" font-size="13" fill="#8ea3c0">projects.html</text>
    <text x="20" y="76" font-family="-apple-system, BlinkMacSystemFont, 'Segoe UI', sans-serif" font-size="23" font-weight="700" fill="#f2f6fc">Projects</text>
  </g>
  <g transform="translate(430 234)">
    <rect width="340" height="108" rx="14" fill="#14243f" stroke="#33507e" stroke-width="1.4"/>
    <line x1="0" y1="34" x2="340" y2="34" stroke="#33507e" stroke-width="1" opacity="0.5"/>
    <circle cx="20" cy="17" r="4.5" fill="#33507e"/>
    <circle cx="36" cy="17" r="4.5" fill="#2c456e"/>
    <circle cx="52" cy="17" r="4.5" fill="#2c456e"/>
    <text x="72" y="22" font-family="ui-monospace, SFMono-Regular, Menlo, monospace" font-size="13" fill="#8ea3c0">about.html</text>
    <text x="20" y="76" font-family="-apple-system, BlinkMacSystemFont, 'Segoe UI', sans-serif" font-size="23" font-weight="700" fill="#f2f6fc">About</text>
  </g>
  <g transform="translate(794 234)">
    <rect width="340" height="108" rx="14" fill="#14243f" stroke="#33507e" stroke-width="1.4"/>
    <line x1="0" y1="34" x2="340" y2="34" stroke="#33507e" stroke-width="1" opacity="0.5"/>
    <circle cx="20" cy="17" r="4.5" fill="#33507e"/>
    <circle cx="36" cy="17" r="4.5" fill="#2c456e"/>
    <circle cx="52" cy="17" r="4.5" fill="#2c456e"/>
    <text x="72" y="22" font-family="ui-monospace, SFMono-Regular, Menlo, monospace" font-size="13" fill="#8ea3c0">news.html</text>
    <text x="20" y="76" font-family="-apple-system, BlinkMacSystemFont, 'Segoe UI', sans-serif" font-size="23" font-weight="700" fill="#f2f6fc">News &amp; Media</text>
  </g>
  <g transform="translate(66 364)">
    <rect width="340" height="108" rx="14" fill="#14243f" stroke="#33507e" stroke-width="1.4"/>
    <line x1="0" y1="34" x2="340" y2="34" stroke="#33507e" stroke-width="1" opacity="0.5"/>
    <circle cx="20" cy="17" r="4.5" fill="#33507e"/>
    <circle cx="36" cy="17" r="4.5" fill="#2c456e"/>
    <circle cx="52" cy="17" r="4.5" fill="#2c456e"/>
    <text x="72" y="22" font-family="ui-monospace, SFMono-Regular, Menlo, monospace" font-size="13" fill="#8ea3c0">resources.html</text>
    <text x="20" y="76" font-family="-apple-system, BlinkMacSystemFont, 'Segoe UI', sans-serif" font-size="23" font-weight="700" fill="#f2f6fc">Resources</text>
  </g>
  <g transform="translate(430 364)">
    <rect width="340" height="108" rx="14" fill="#14243f" stroke="#33507e" stroke-width="1.4"/>
    <line x1="0" y1="34" x2="340" y2="34" stroke="#33507e" stroke-width="1" opacity="0.5"/>
    <circle cx="20" cy="17" r="4.5" fill="#33507e"/>
    <circle cx="36" cy="17" r="4.5" fill="#2c456e"/>
    <circle cx="52" cy="17" r="4.5" fill="#2c456e"/>
    <text x="72" y="22" font-family="ui-monospace, SFMono-Regular, Menlo, monospace" font-size="13" fill="#8ea3c0">careers.html</text>
    <text x="20" y="76" font-family="-apple-system, BlinkMacSystemFont, 'Segoe UI', sans-serif" font-size="23" font-weight="700" fill="#f2f6fc">Careers</text>
  </g>
  <g transform="translate(794 364)">
    <rect width="340" height="108" rx="14" fill="#14243f" stroke="#33507e" stroke-width="1.4"/>
    <line x1="0" y1="34" x2="340" y2="34" stroke="#33507e" stroke-width="1" opacity="0.5"/>
    <circle cx="20" cy="17" r="4.5" fill="#33507e"/>
    <circle cx="36" cy="17" r="4.5" fill="#2c456e"/>
    <circle cx="52" cy="17" r="4.5" fill="#2c456e"/>
    <text x="72" y="22" font-family="ui-monospace, SFMono-Regular, Menlo, monospace" font-size="13" fill="#8ea3c0">contact.html</text>
    <text x="20" y="76" font-family="-apple-system, BlinkMacSystemFont, 'Segoe UI', sans-serif" font-size="23" font-weight="700" fill="#f2f6fc">Contact</text>
  </g>
</svg>